<svg width="82" height="9" viewBox="0 0 82 9" fill="none" xmlns="http://www.w3.org/2000/svg">
<mask id="mask0_1_40" style="mask-type:luminance" maskUnits="userSpaceOnUse" x="-4" y="-3" width="90" height="15">
<path d="M85.1098 -2.37424H-3.73884V11.7608H85.1098V-2.37424Z" fill="white"/>
</mask>
<g mask="url(#mask0_1_40)">
<path d="M5.48994 5.99279H6.62578C6.56663 6.53705 6.41084 7.02412 6.15843 7.45401C5.90602 7.88389 5.54909 8.22504 5.08766 8.47745C4.62622 8.72592 4.05041 8.85016 3.36022 8.85016C2.8554 8.85016 2.39593 8.7555 1.98182 8.56619C1.57165 8.37688 1.21867 8.1087 0.922877 7.76163C0.627083 7.41062 0.398336 6.9906 0.236635 6.50155C0.0788784 6.00856 0 5.46036 0 4.85694V3.99913C0 3.39571 0.0788784 2.84948 0.236635 2.36044C0.398336 1.86745 0.629055 1.44545 0.928793 1.09444C1.23247 0.743429 1.59729 0.47327 2.02323 0.283962C2.44917 0.0946541 2.92836 0 3.46079 0C4.11154 0 4.66171 0.122262 5.11132 0.366785C5.56093 0.611308 5.90996 0.950485 6.15843 1.38432C6.41084 1.8142 6.56663 2.31311 6.62578 2.88103H5.48994C5.43472 2.47875 5.33218 2.13366 5.18231 1.84575C5.03244 1.5539 4.81947 1.3291 4.5434 1.17134C4.26732 1.01359 3.90645 0.934709 3.46079 0.934709C3.07823 0.934709 2.74102 1.00767 2.44917 1.1536C2.16127 1.29952 1.91872 1.50658 1.72152 1.77476C1.52827 2.04295 1.38234 2.36438 1.28375 2.73905C1.18515 3.11372 1.13585 3.52981 1.13585 3.9873V4.85694C1.13585 5.27894 1.17923 5.6753 1.266 6.04603C1.35671 6.41676 1.49277 6.74213 1.67419 7.02215C1.85561 7.30217 2.08633 7.52303 2.36635 7.68473C2.64637 7.84248 2.97766 7.92136 3.36022 7.92136C3.84532 7.92136 4.23183 7.84446 4.51973 7.69064C4.80764 7.53683 5.02455 7.31597 5.17048 7.02806C5.32035 6.74016 5.42683 6.39507 5.48994 5.99279ZM9.11045 3.33656V8.73184H8.01602V2.33086H9.08087L9.11045 3.33656ZM11.11 2.29536L11.1041 3.31289C11.0134 3.29317 10.9266 3.28134 10.8438 3.2774C10.7649 3.26951 10.6742 3.26557 10.5717 3.26557C10.3193 3.26557 10.0964 3.305 9.90318 3.38388C9.70993 3.46276 9.54626 3.57319 9.41216 3.71517C9.27807 3.85715 9.17158 4.02674 9.09271 4.22394C9.01777 4.41719 8.96847 4.63016 8.94481 4.86285L8.63718 5.04033C8.63718 4.65382 8.67465 4.29098 8.74959 3.95181C8.82846 3.61263 8.94875 3.31289 9.11045 3.05259C9.27215 2.78835 9.47724 2.58327 9.72571 2.43734C9.97812 2.28747 10.2779 2.21254 10.6249 2.21254C10.7038 2.21254 10.7945 2.2224 10.897 2.24212C10.9996 2.25789 11.0706 2.27564 11.11 2.29536ZM14.6595 8.85016C14.2139 8.85016 13.8096 8.77522 13.4468 8.62535C13.0879 8.47154 12.7783 8.2566 12.518 7.98052C12.2616 7.70445 12.0644 7.3771 11.9264 6.99848C11.7884 6.61987 11.7194 6.20576 11.7194 5.75615V5.50768C11.7194 4.98709 11.7963 4.52368 11.9501 4.11745C12.1039 3.70728 12.3129 3.36022 12.5772 3.07626C12.8414 2.79229 13.1411 2.57735 13.4764 2.43143C13.8116 2.2855 14.1587 2.21254 14.5176 2.21254C14.9751 2.21254 15.3695 2.29142 15.7007 2.44917C16.036 2.60693 16.3101 2.82779 16.5231 3.11175C16.736 3.39177 16.8938 3.72306 16.9963 4.10562C17.0989 4.48424 17.1501 4.89835 17.1501 5.34795V5.83897H12.3701V4.94567H16.0557V4.86285C16.0399 4.57889 15.9808 4.30282 15.8782 4.03463C15.7796 3.76644 15.6219 3.54558 15.4049 3.37205C15.188 3.19852 14.8922 3.11175 14.5176 3.11175C14.2691 3.11175 14.0404 3.165 13.8313 3.27148C13.6223 3.37402 13.4428 3.52784 13.293 3.73292C13.1431 3.938 13.0268 4.18844 12.9439 4.48424C12.8611 4.78003 12.8197 5.12118 12.8197 5.50768V5.75615C12.8197 6.05983 12.8611 6.34577 12.9439 6.61395C13.0307 6.8782 13.1549 7.11089 13.3166 7.31203C13.4823 7.51317 13.6815 7.67092 13.9141 7.7853C14.1508 7.89967 14.419 7.95686 14.7187 7.95686C15.1052 7.95686 15.4326 7.87798 15.7007 7.72022C15.9689 7.56247 16.2036 7.35147 16.4047 7.08722L17.0673 7.61374C16.9293 7.82276 16.7538 8.02193 16.5408 8.21124C16.3278 8.40055 16.0656 8.55436 15.754 8.67268C15.4464 8.791 15.0815 8.85016 14.6595 8.85016ZM22.2023 7.6374V4.34226C22.2023 4.08984 22.151 3.87096 22.0485 3.68559C21.9499 3.49628 21.8 3.35036 21.5989 3.24782C21.3977 3.14528 21.1493 3.094 20.8535 3.094C20.5774 3.094 20.3348 3.14133 20.1258 3.23599C19.9207 3.33064 19.759 3.45487 19.6407 3.60869C19.5263 3.7625 19.4692 3.92814 19.4692 4.10562H18.3747C18.3747 3.87687 18.4339 3.6501 18.5522 3.42529C18.6705 3.20049 18.8401 2.99738 19.061 2.81596C19.2858 2.63059 19.554 2.48467 19.8655 2.37818C20.181 2.26775 20.532 2.21254 20.9185 2.21254C21.3839 2.21254 21.7941 2.29142 22.1491 2.44917C22.5079 2.60693 22.788 2.84554 22.9891 3.165C23.1942 3.48051 23.2967 3.87687 23.2967 4.35409V7.33569C23.2967 7.54866 23.3145 7.77544 23.35 8.01602C23.3894 8.2566 23.4466 8.46365 23.5215 8.63718V8.73184H22.3798C22.3246 8.60563 22.2812 8.43802 22.2496 8.22899C22.2181 8.01602 22.2023 7.81882 22.2023 7.6374ZM22.3916 4.85102L22.4034 5.62009H21.2972C20.9856 5.62009 20.7075 5.64572 20.463 5.69699C20.2185 5.74432 20.0134 5.81728 19.8478 5.91588C19.6821 6.01448 19.5559 6.13871 19.4692 6.28858C19.3824 6.4345 19.339 6.60606 19.339 6.80326C19.339 7.0044 19.3844 7.18779 19.4751 7.35344C19.5658 7.51908 19.7018 7.6512 19.8833 7.7498C20.0686 7.84446 20.2954 7.89178 20.5636 7.89178C20.8988 7.89178 21.1946 7.82079 21.451 7.67881C21.7073 7.53683 21.9104 7.3633 22.0603 7.15821C22.2141 6.95313 22.2969 6.75396 22.3088 6.56071L22.7761 7.08722C22.7485 7.25287 22.6736 7.43626 22.5513 7.6374C22.4291 7.83854 22.2654 8.03179 22.0603 8.21716C21.8592 8.39858 21.6186 8.55042 21.3386 8.67268C21.0625 8.791 20.7509 8.85016 20.4039 8.85016C19.97 8.85016 19.5894 8.76536 19.2621 8.59577C18.9387 8.42618 18.6863 8.19941 18.5049 7.91545C18.3274 7.62754 18.2387 7.30611 18.2387 6.95116C18.2387 6.60804 18.3057 6.30633 18.4398 6.04603C18.5739 5.78179 18.7671 5.5629 19.0196 5.38937C19.272 5.21189 19.5756 5.0778 19.9306 4.98709C20.2855 4.89638 20.6819 4.85102 21.1197 4.85102H22.3916ZM27.6981 2.33086V3.17091H24.2374V2.33086H27.6981ZM25.4087 0.77498H26.5031V7.14638C26.5031 7.3633 26.5367 7.52697 26.6037 7.6374C26.6708 7.74783 26.7575 7.82079 26.864 7.85629C26.9705 7.89178 27.0849 7.90953 27.2071 7.90953C27.2978 7.90953 27.3925 7.90164 27.4911 7.88587C27.5936 7.86615 27.6705 7.85037 27.7218 7.83854L27.7277 8.73184C27.641 8.75944 27.5266 8.78508 27.3846 8.80874C27.2466 8.83635 27.079 8.85016 26.8818 8.85016C26.6136 8.85016 26.3671 8.79691 26.1423 8.69043C25.9175 8.58394 25.738 8.40646 25.6039 8.158C25.4738 7.90559 25.4087 7.56641 25.4087 7.14047V0.77498ZM31.6381 8.85016C31.1925 8.85016 30.7882 8.77522 30.4254 8.62535C30.0665 8.47154 29.7569 8.2566 29.4966 7.98052C29.2402 7.70445 29.043 7.3771 28.905 6.99848C28.7669 6.61987 28.6979 6.20576 28.6979 5.75615V5.50768C28.6979 4.98709 28.7748 4.52368 28.9286 4.11745C29.0825 3.70728 29.2915 3.36022 29.5557 3.07626C29.82 2.79229 30.1197 2.57735 30.4549 2.43143C30.7902 2.2855 31.1372 2.21254 31.4961 2.21254C31.9536 2.21254 32.348 2.29142 32.6793 2.44917C33.0145 2.60693 33.2887 2.82779 33.5016 3.11175C33.7146 3.39177 33.8724 3.72306 33.9749 4.10562C34.0774 4.48424 34.1287 4.89835 34.1287 5.34795V5.83897H29.3487V4.94567H33.0343V4.86285C33.0185 4.57889 32.9593 4.30282 32.8568 4.03463C32.7582 3.76644 32.6004 3.54558 32.3835 3.37205C32.1666 3.19852 31.8708 3.11175 31.4961 3.11175C31.2477 3.11175 31.0189 3.165 30.8099 3.27148C30.6009 3.37402 30.4214 3.52784 30.2716 3.73292C30.1217 3.938 30.0053 4.18844 29.9225 4.48424C29.8397 4.78003 29.7983 5.12118 29.7983 5.50768V5.75615C29.7983 6.05983 29.8397 6.34577 29.9225 6.61395C30.0093 6.8782 30.1335 7.11089 30.2952 7.31203C30.4609 7.51317 30.66 7.67092 30.8927 7.7853C31.1294 7.89967 31.3975 7.95686 31.6973 7.95686C32.0838 7.95686 32.4111 7.87798 32.6793 7.72022C32.9475 7.56247 33.1822 7.35147 33.3833 7.08722L34.0459 7.61374C33.9078 7.82276 33.7323 8.02193 33.5194 8.21124C33.3064 8.40055 33.0441 8.55436 32.7326 8.67268C32.4249 8.791 32.0601 8.85016 31.6381 8.85016ZM41.7661 0.881466L38.9147 8.73184H37.7492L41.0325 0.118318H41.7839L41.7661 0.881466ZM44.1561 8.73184L41.2988 0.881466L41.281 0.118318H42.0323L45.3275 8.73184H44.1561ZM44.0082 5.54318V6.47789H39.169V5.54318H44.0082ZM48.877 7.95094C49.1373 7.95094 49.3779 7.8977 49.5987 7.79121C49.8196 7.68473 50.001 7.5388 50.143 7.35344C50.285 7.16413 50.3658 6.94919 50.3855 6.70861H51.4267C51.407 7.08722 51.2788 7.4402 51.0422 7.76755C50.8095 8.09095 50.5039 8.35322 50.1252 8.55436C49.7466 8.75156 49.3305 8.85016 48.877 8.85016C48.3958 8.85016 47.9758 8.76536 47.6169 8.59577C47.262 8.42618 46.9662 8.19349 46.7295 7.8977C46.4968 7.6019 46.3213 7.26273 46.203 6.88017C46.0886 6.49366 46.0315 6.08547 46.0315 5.65558V5.40711C46.0315 4.97723 46.0886 4.571 46.203 4.18844C46.3213 3.80194 46.4968 3.46079 46.7295 3.165C46.9662 2.8692 47.262 2.63651 47.6169 2.46692C47.9758 2.29733 48.3958 2.21254 48.877 2.21254C49.3779 2.21254 49.8156 2.31508 50.1903 2.52016C50.565 2.7213 50.8588 2.99738 51.0718 3.34839C51.2887 3.69545 51.407 4.08984 51.4267 4.53156H50.3855C50.3658 4.26732 50.2909 4.02871 50.1607 3.81574C50.0345 3.60277 49.861 3.43318 49.6401 3.30698C49.4232 3.17683 49.1688 3.11175 48.877 3.11175C48.5418 3.11175 48.2598 3.1788 48.031 3.31289C47.8062 3.44304 47.6268 3.62052 47.4927 3.84532C47.3625 4.06618 47.2679 4.31268 47.2087 4.58481C47.1535 4.85299 47.1259 5.1271 47.1259 5.40711V5.65558C47.1259 5.9356 47.1535 6.21167 47.2087 6.4838C47.2639 6.75593 47.3566 7.00243 47.4868 7.22329C47.6209 7.44415 47.8003 7.62162 48.0251 7.75572C48.2539 7.88587 48.5378 7.95094 48.877 7.95094ZM55.2188 7.95094C55.4791 7.95094 55.7197 7.8977 55.9406 7.79121C56.1614 7.68473 56.3428 7.5388 56.4848 7.35344C56.6268 7.16413 56.7076 6.94919 56.7274 6.70861H57.7686C57.7488 7.08722 57.6207 7.4402 57.384 7.76755C57.1513 8.09095 56.8457 8.35322 56.4671 8.55436C56.0884 8.75156 55.6724 8.85016 55.2188 8.85016C54.7377 8.85016 54.3176 8.76536 53.9587 8.59577C53.6038 8.42618 53.308 8.19349 53.0714 7.8977C52.8387 7.6019 52.6632 7.26273 52.5448 6.88017C52.4305 6.49366 52.3733 6.08547 52.3733 5.65558V5.40711C52.3733 4.97723 52.4305 4.571 52.5448 4.18844C52.6632 3.80194 52.8387 3.46079 53.0714 3.165C53.308 2.8692 53.6038 2.63651 53.9587 2.46692C54.3176 2.29733 54.7377 2.21254 55.2188 2.21254C55.7197 2.21254 56.1575 2.31508 56.5321 2.52016C56.9068 2.7213 57.2006 2.99738 57.4136 3.34839C57.6305 3.69545 57.7488 4.08984 57.7686 4.53156H56.7274C56.7076 4.26732 56.6327 4.02871 56.5026 3.81574C56.3764 3.60277 56.2028 3.43318 55.982 3.30698C55.765 3.17683 55.5107 3.11175 55.2188 3.11175C54.8836 3.11175 54.6016 3.1788 54.3728 3.31289C54.148 3.44304 53.9686 3.62052 53.8345 3.84532C53.7044 4.06618 53.6097 4.31268 53.5505 4.58481C53.4953 4.85299 53.4677 5.1271 53.4677 5.40711V5.65558C53.4677 5.9356 53.4953 6.21167 53.5505 6.4838C53.6058 6.75593 53.6984 7.00243 53.8286 7.22329C53.9627 7.44415 54.1421 7.62162 54.3669 7.75572C54.5957 7.88587 54.8796 7.95094 55.2188 7.95094ZM58.7092 5.60234V5.46627C58.7092 5.00483 58.7762 4.57692 58.9103 4.18253C59.0444 3.78419 59.2377 3.4391 59.4901 3.14725C59.7425 2.85145 60.0481 2.62271 60.407 2.46101C60.7659 2.29536 61.1682 2.21254 61.6139 2.21254C62.0635 2.21254 62.4677 2.29536 62.8266 2.46101C63.1895 2.62271 63.4971 2.85145 63.7495 3.14725C64.0059 3.4391 64.2011 3.78419 64.3352 4.18253C64.4693 4.57692 64.5363 5.00483 64.5363 5.46627V5.60234C64.5363 6.06378 64.4693 6.49169 64.3352 6.88608C64.2011 7.28048 64.0059 7.62557 63.7495 7.92136C63.4971 8.21321 63.1914 8.44196 62.8326 8.6076C62.4776 8.7693 62.0753 8.85016 61.6257 8.85016C61.1761 8.85016 60.7719 8.7693 60.413 8.6076C60.0541 8.44196 59.7464 8.21321 59.4901 7.92136C59.2377 7.62557 59.0444 7.28048 58.9103 6.88608C58.7762 6.49169 58.7092 6.06378 58.7092 5.60234ZM59.8036 5.46627V5.60234C59.8036 5.92179 59.8411 6.2235 59.916 6.50747C59.991 6.78749 60.1034 7.03595 60.2532 7.25287C60.407 7.46978 60.5983 7.64134 60.8271 7.76755C61.0558 7.88981 61.322 7.95094 61.6257 7.95094C61.9255 7.95094 62.1877 7.88981 62.4125 7.76755C62.6413 7.64134 62.8306 7.46978 62.9804 7.25287C63.1303 7.03595 63.2427 6.78749 63.3177 6.50747C63.3965 6.2235 63.436 5.92179 63.436 5.60234V5.46627C63.436 5.15076 63.3965 4.85299 63.3177 4.57297C63.2427 4.28901 63.1283 4.03857 62.9745 3.82166C62.8247 3.6008 62.6354 3.42727 62.4066 3.30106C62.1818 3.17486 61.9176 3.11175 61.6139 3.11175C61.3141 3.11175 61.0499 3.17486 60.8212 3.30106C60.5963 3.42727 60.407 3.6008 60.2532 3.82166C60.1034 4.03857 59.991 4.28901 59.916 4.57297C59.8411 4.85299 59.8036 5.15076 59.8036 5.46627ZM69.8251 7.25287V2.33086H70.9255V8.73184H69.8784L69.8251 7.25287ZM70.0322 5.90405L70.4877 5.89222C70.4877 6.31816 70.4423 6.71255 70.3516 7.07539C70.2649 7.43429 70.1229 7.74586 69.9257 8.0101C69.7285 8.27434 69.4702 8.4814 69.1507 8.63127C68.8313 8.77719 68.4428 8.85016 67.9853 8.85016C67.6737 8.85016 67.3878 8.8048 67.1275 8.71409C66.8711 8.62338 66.6503 8.48337 66.4649 8.29406C66.2795 8.10475 66.1356 7.85826 66.033 7.55458C65.9344 7.2509 65.8851 6.88608 65.8851 6.46014V2.33086H66.9796V6.47197C66.9796 6.75988 67.0111 6.99848 67.0742 7.18779C67.1413 7.37316 67.23 7.52105 67.3405 7.63148C67.4548 7.73797 67.581 7.8129 67.7191 7.85629C67.861 7.89967 68.007 7.92136 68.1568 7.92136C68.6222 7.92136 68.991 7.83262 69.2631 7.65515C69.5352 7.47373 69.7305 7.23118 69.8488 6.92749C69.971 6.61987 70.0322 6.27872 70.0322 5.90405ZM73.6882 3.69742V8.73184H72.5938V2.33086H73.629L73.6882 3.69742ZM73.4279 5.2888L72.9724 5.27105C72.9763 4.83327 73.0414 4.42902 73.1676 4.05829C73.2938 3.68362 73.4713 3.35825 73.7 3.08217C73.9288 2.8061 74.2009 2.59313 74.5164 2.44326C74.8359 2.28945 75.1889 2.21254 75.5754 2.21254C75.8909 2.21254 76.1748 2.25592 76.4272 2.34269C76.6797 2.42551 76.8946 2.5596 77.0721 2.74497C77.2535 2.93033 77.3915 3.17091 77.4862 3.46671C77.5808 3.75856 77.6282 4.11548 77.6282 4.53748V8.73184H76.5278V4.52565C76.5278 4.19041 76.4785 3.92223 76.3799 3.72109C76.2813 3.516 76.1374 3.36811 75.9481 3.2774C75.7587 3.18274 75.5261 3.13542 75.25 3.13542C74.9779 3.13542 74.7294 3.1926 74.5046 3.30698C74.2837 3.42135 74.0924 3.57911 73.9307 3.78025C73.773 3.98139 73.6488 4.21211 73.558 4.4724C73.4713 4.72876 73.4279 5.00089 73.4279 5.2888ZM81.9704 2.33086V3.17091H78.5096V2.33086H81.9704ZM79.681 0.77498H80.7754V7.14638C80.7754 7.3633 80.8089 7.52697 80.876 7.6374C80.943 7.74783 81.0298 7.82079 81.1363 7.85629C81.2428 7.89178 81.3571 7.90953 81.4794 7.90953C81.5701 7.90953 81.6648 7.90164 81.7634 7.88587C81.8659 7.86615 81.9428 7.85037 81.9941 7.83854L82 8.73184C81.9132 8.75944 81.7989 8.78508 81.6569 8.80874C81.5188 8.83635 81.3512 8.85016 81.154 8.85016C80.8858 8.85016 80.6393 8.79691 80.4145 8.69043C80.1897 8.58394 80.0103 8.40646 79.8762 8.158C79.7461 7.90559 79.681 7.56641 79.681 7.14047V0.77498Z" fill="#979797"/>
</g>
</svg>
