<svg width="96" height="12" viewBox="0 0 96 12" fill="none" xmlns="http://www.w3.org/2000/svg">
<mask id="mask0_1_35" style="mask-type:luminance" maskUnits="userSpaceOnUse" x="-6" y="-3" width="107" height="16">
<path d="M100.048 -2.02097H-5.04256V12.1258H100.048V-2.02097Z" fill="white"/>
</mask>
<g mask="url(#mask0_1_35)">
<path d="M1.14272 0.473665V9.09436H0V0.473665H1.14272ZM4.75441 4.35179V5.28728H0.894042V4.35179H4.75441ZM5.34057 0.473665V1.40915H0.894042V0.473665H5.34057ZM6.1162 5.96225V5.82608C6.1162 5.36425 6.1833 4.93598 6.3175 4.54126C6.45171 4.14259 6.64512 3.79721 6.89774 3.50512C7.15036 3.20908 7.45627 2.98014 7.81547 2.81831C8.17466 2.65252 8.57728 2.56963 9.02331 2.56963C9.47329 2.56963 9.87788 2.65252 10.2371 2.81831C10.6002 2.98014 10.9081 3.20908 11.1607 3.50512C11.4173 3.79721 11.6127 4.14259 11.7469 4.54126C11.8811 4.93598 11.9482 5.36425 11.9482 5.82608V5.96225C11.9482 6.42408 11.8811 6.85235 11.7469 7.24707C11.6127 7.64179 11.4173 7.98717 11.1607 8.28321C10.9081 8.57531 10.6022 8.80424 10.243 8.97003C9.88775 9.13186 9.48514 9.21278 9.03515 9.21278C8.58517 9.21278 8.18058 9.13186 7.82139 8.97003C7.46219 8.80424 7.15431 8.57531 6.89774 8.28321C6.64512 7.98717 6.45171 7.64179 6.3175 7.24707C6.1833 6.85235 6.1162 6.42408 6.1162 5.96225ZM7.21155 5.82608V5.96225C7.21155 6.28198 7.24904 6.58394 7.32404 6.86814C7.39904 7.14839 7.51153 7.39706 7.66153 7.61416C7.81547 7.83126 8.00691 8.00296 8.23585 8.12927C8.46478 8.25163 8.73122 8.31282 9.03515 8.31282C9.33514 8.31282 9.59763 8.25163 9.82262 8.12927C10.0516 8.00296 10.241 7.83126 10.391 7.61416C10.541 7.39706 10.6535 7.14839 10.7285 6.86814C10.8075 6.58394 10.8469 6.28198 10.8469 5.96225V5.82608C10.8469 5.5103 10.8075 5.21229 10.7285 4.93203C10.6535 4.64784 10.539 4.39719 10.3851 4.18009C10.2351 3.95905 10.0456 3.78537 9.8167 3.65906C9.59171 3.53275 9.32725 3.46959 9.02331 3.46959C8.72333 3.46959 8.45886 3.53275 8.22992 3.65906C8.00493 3.78537 7.81547 3.95905 7.66153 4.18009C7.51153 4.39719 7.39904 4.64784 7.32404 4.93203C7.24904 5.21229 7.21155 5.5103 7.21155 5.82608ZM14.4172 3.69458V9.09436H13.3218V2.68805H14.3876L14.4172 3.69458ZM16.4184 2.65252L16.4125 3.6709C16.3217 3.65117 16.2349 3.63932 16.152 3.63538C16.073 3.62748 15.9822 3.62354 15.8796 3.62354C15.627 3.62354 15.404 3.66301 15.2106 3.74195C15.0171 3.8209 14.8533 3.93142 14.7191 4.07352C14.5849 4.21562 14.4784 4.38535 14.3994 4.58271C14.3244 4.77612 14.2751 4.98927 14.2514 5.22215L13.9435 5.39978C13.9435 5.01295 13.981 4.64981 14.056 4.31035C14.1349 3.97089 14.2553 3.6709 14.4172 3.41039C14.579 3.14592 14.7843 2.94067 15.0329 2.79462C15.2856 2.64463 15.5855 2.56963 15.9329 2.56963C16.0118 2.56963 16.1026 2.5795 16.2053 2.59924C16.3079 2.61502 16.3789 2.63279 16.4184 2.65252ZM21.4629 2.68805H22.4576V8.95818C22.4576 9.52263 22.3432 10.0042 22.1142 10.4029C21.8853 10.8015 21.5656 11.1035 21.1551 11.3087C20.7485 11.5179 20.2788 11.6225 19.7459 11.6225C19.5249 11.6225 19.2643 11.587 18.9644 11.516C18.6683 11.4489 18.3762 11.3324 18.0881 11.1666C17.8039 11.0048 17.5651 10.7857 17.3717 10.5094L17.946 9.85815C18.2144 10.1818 18.4946 10.4068 18.7867 10.5331C19.0828 10.6594 19.3749 10.7226 19.663 10.7226C20.0104 10.7226 20.3103 10.6575 20.563 10.5272C20.8156 10.3969 21.011 10.2035 21.1491 9.94696C21.2912 9.69434 21.3623 9.38251 21.3623 9.01147V4.0972L21.4629 2.68805ZM17.0519 5.96225V5.83792C17.0519 5.34846 17.1092 4.9044 17.2236 4.50574C17.3421 4.10312 17.5098 3.75774 17.7269 3.46959C17.9479 3.18145 18.2144 2.9604 18.5262 2.80646C18.838 2.64858 19.1893 2.56963 19.5801 2.56963C19.9827 2.56963 20.334 2.64068 20.634 2.78278C20.938 2.92093 21.1945 3.12421 21.4037 3.39262C21.6169 3.65709 21.7846 3.97681 21.907 4.35179C22.0294 4.72678 22.1142 5.1511 22.1616 5.62477V6.16948C22.1182 6.6392 22.0333 7.06155 21.907 7.43654C21.7846 7.81152 21.6169 8.13124 21.4037 8.39571C21.1945 8.66017 20.938 8.86345 20.634 9.00555C20.3301 9.1437 19.9748 9.21278 19.5683 9.21278C19.1854 9.21278 18.838 9.13186 18.5262 8.97003C18.2183 8.80819 17.9539 8.58123 17.7328 8.28913C17.5118 7.99704 17.3421 7.65363 17.2236 7.25891C17.1092 6.86024 17.0519 6.42803 17.0519 5.96225ZM18.1473 5.83792V5.96225C18.1473 6.28198 18.1789 6.58197 18.242 6.86222C18.3091 7.14247 18.4098 7.38917 18.544 7.60232C18.6821 7.81547 18.8578 7.98322 19.0709 8.10559C19.2841 8.224 19.5387 8.28321 19.8347 8.28321C20.1979 8.28321 20.4978 8.20624 20.7347 8.0523C20.9715 7.89836 21.159 7.69508 21.2972 7.44246C21.4393 7.18984 21.5498 6.91551 21.6287 6.61946V5.19255C21.5853 4.97545 21.5182 4.76625 21.4274 4.56494C21.3406 4.35969 21.2261 4.17812 21.084 4.02023C20.9458 3.85839 20.7741 3.73011 20.5689 3.63538C20.3636 3.54064 20.1229 3.49328 19.8466 3.49328C19.5466 3.49328 19.288 3.55643 19.0709 3.68274C18.8578 3.80511 18.6821 3.97484 18.544 4.19193C18.4098 4.40508 18.3091 4.65376 18.242 4.93795C18.1789 5.21821 18.1473 5.51819 18.1473 5.83792ZM23.8313 5.96225V5.82608C23.8313 5.36425 23.8984 4.93598 24.0326 4.54126C24.1668 4.14259 24.3602 3.79721 24.6128 3.50512C24.8654 3.20908 25.1713 2.98014 25.5305 2.81831C25.8897 2.65252 26.2923 2.56963 26.7384 2.56963C27.1884 2.56963 27.5929 2.65252 27.9521 2.81831C28.3153 2.98014 28.6232 3.20908 28.8758 3.50512C29.1324 3.79721 29.3277 4.14259 29.4619 4.54126C29.5962 4.93598 29.6633 5.36425 29.6633 5.82608V5.96225C29.6633 6.42408 29.5962 6.85235 29.4619 7.24707C29.3277 7.64179 29.1324 7.98717 28.8758 8.28321C28.6232 8.57531 28.3173 8.80424 27.9581 8.97003C27.6028 9.13186 27.2002 9.21278 26.7502 9.21278C26.3002 9.21278 25.8956 9.13186 25.5364 8.97003C25.1773 8.80424 24.8694 8.57531 24.6128 8.28321C24.3602 7.98717 24.1668 7.64179 24.0326 7.24707C23.8984 6.85235 23.8313 6.42408 23.8313 5.96225ZM24.9266 5.82608V5.96225C24.9266 6.28198 24.9641 6.58394 25.0391 6.86814C25.1141 7.14839 25.2266 7.39706 25.3766 7.61416C25.5305 7.83126 25.722 8.00296 25.9509 8.12927C26.1798 8.25163 26.4463 8.31282 26.7502 8.31282C27.0502 8.31282 27.3127 8.25163 27.5377 8.12927C27.7666 8.00296 27.9561 7.83126 28.1061 7.61416C28.2561 7.39706 28.3686 7.14839 28.4436 6.86814C28.5225 6.58394 28.562 6.28198 28.562 5.96225V5.82608C28.562 5.5103 28.5225 5.21229 28.4436 4.93203C28.3686 4.64784 28.2541 4.39719 28.1002 4.18009C27.9502 3.95905 27.7607 3.78537 27.5318 3.65906C27.3068 3.53275 27.0423 3.46959 26.7384 3.46959C26.4384 3.46959 26.1739 3.53275 25.945 3.65906C25.72 3.78537 25.5305 3.95905 25.3766 4.18009C25.2266 4.39719 25.1141 4.64784 25.0391 4.93203C24.9641 5.21229 24.9266 5.5103 24.9266 5.82608ZM33.719 2.68805V3.5288H30.2553V2.68805H33.719ZM31.4277 1.13087H32.523V7.50759C32.523 7.72468 32.5566 7.88849 32.6237 7.99901C32.6908 8.10953 32.7776 8.18256 32.8842 8.21808C32.9907 8.25361 33.1052 8.27137 33.2276 8.27137C33.3184 8.27137 33.4131 8.26348 33.5118 8.24769C33.6144 8.22795 33.6914 8.21216 33.7427 8.20032L33.7486 9.09436C33.6618 9.12199 33.5473 9.14765 33.4052 9.17133C33.2671 9.19896 33.0993 9.21278 32.9019 9.21278C32.6335 9.21278 32.3868 9.15949 32.1618 9.05292C31.9368 8.94634 31.7572 8.76872 31.623 8.52004C31.4928 8.26742 31.4277 7.92796 31.4277 7.50167V1.13087ZM41.3569 5.71358H39.0537V4.78401H41.3569C41.8029 4.78401 42.1641 4.71296 42.4404 4.57086C42.7167 4.42877 42.918 4.2314 43.0443 3.97878C43.1745 3.72616 43.2397 3.43802 43.2397 3.11435C43.2397 2.81831 43.1745 2.54003 43.0443 2.27951C42.918 2.019 42.7167 1.80979 42.4404 1.65191C42.1641 1.49007 41.8029 1.40915 41.3569 1.40915H39.3201V9.09436H38.1774V0.473665H41.3569C42.0081 0.473665 42.5588 0.58616 43.0088 0.811151C43.4587 1.03614 43.8002 1.34797 44.0331 1.74664C44.2659 2.14136 44.3824 2.59331 44.3824 3.1025C44.3824 3.65511 44.2659 4.1268 44.0331 4.51758C43.8002 4.90835 43.4587 5.20636 43.0088 5.41162C42.5588 5.61293 42.0081 5.71358 41.3569 5.71358ZM49.3677 7.99901V4.70112C49.3677 4.4485 49.3164 4.22943 49.2138 4.04391C49.1151 3.85445 48.9651 3.7084 48.7638 3.60577C48.5625 3.50315 48.3138 3.45183 48.0178 3.45183C47.7415 3.45183 47.4987 3.4992 47.2895 3.59393C47.0842 3.68866 46.9224 3.813 46.804 3.96694C46.6895 4.12088 46.6323 4.28667 46.6323 4.46429H45.5369C45.5369 4.23535 45.5962 4.00839 45.7146 3.7834C45.833 3.55841 46.0027 3.35513 46.2238 3.17355C46.4487 2.98804 46.7172 2.84199 47.029 2.73541C47.3448 2.62489 47.6961 2.56963 48.0829 2.56963C48.5487 2.56963 48.9592 2.64858 49.3144 2.80646C49.6736 2.96435 49.9539 3.20316 50.1552 3.52288C50.3604 3.83866 50.4631 4.23535 50.4631 4.71296V7.69705C50.4631 7.9102 50.4808 8.13717 50.5163 8.37794C50.5558 8.61872 50.6131 8.82595 50.688 8.99963V9.09436H49.5453C49.4901 8.96805 49.4467 8.8003 49.4151 8.59109C49.3835 8.37794 49.3677 8.18058 49.3677 7.99901ZM49.5572 5.21031L49.569 5.98002H48.4618C48.15 5.98002 47.8717 6.00567 47.627 6.05699C47.3823 6.10435 47.177 6.17738 47.0112 6.27606C46.8454 6.37474 46.7191 6.49907 46.6323 6.64907C46.5455 6.79512 46.502 6.96682 46.502 7.16418C46.502 7.36549 46.5474 7.54903 46.6382 7.71481C46.729 7.8806 46.8652 8.01283 47.0467 8.11151C47.2323 8.20624 47.4592 8.25361 47.7276 8.25361C48.0632 8.25361 48.3592 8.18256 48.6158 8.04046C48.8723 7.89836 49.0756 7.72468 49.2256 7.51943C49.3795 7.31417 49.4624 7.11484 49.4743 6.92143L49.942 7.44838C49.9144 7.61416 49.8394 7.79771 49.717 7.99901C49.5947 8.20032 49.4309 8.39373 49.2256 8.57925C49.0243 8.76082 48.7835 8.91279 48.5033 9.03515C48.227 9.15357 47.9151 9.21278 47.5678 9.21278C47.1336 9.21278 46.7527 9.12791 46.4251 8.95818C46.1014 8.78845 45.8488 8.56149 45.6672 8.27729C45.4896 7.98915 45.4008 7.66745 45.4008 7.3122C45.4008 6.96879 45.4679 6.66683 45.6021 6.40632C45.7363 6.14185 45.9297 5.92278 46.1823 5.74911C46.4349 5.57148 46.7389 5.43728 47.0941 5.34649C47.4494 5.2557 47.8461 5.21031 48.2842 5.21031H49.5572ZM55.9161 7.39509C55.9161 7.2372 55.8806 7.09116 55.8095 6.95695C55.7424 6.8188 55.6023 6.69446 55.3892 6.58394C55.18 6.46947 54.8642 6.37079 54.4418 6.2879C54.0866 6.2129 53.7649 6.12409 53.4767 6.02146C53.1925 5.91884 52.9498 5.7945 52.7485 5.64845C52.5511 5.50241 52.3992 5.3307 52.2926 5.13334C52.186 4.93598 52.1327 4.70507 52.1327 4.44061C52.1327 4.18799 52.188 3.94918 52.2985 3.72419C52.413 3.4992 52.5728 3.29986 52.7781 3.12619C52.9873 2.95251 53.2379 2.81633 53.53 2.71765C53.8221 2.61897 54.1478 2.56963 54.507 2.56963C55.0201 2.56963 55.4582 2.66042 55.8214 2.84199C56.1845 3.02356 56.4628 3.26631 56.6562 3.57025C56.8496 3.87024 56.9463 4.20377 56.9463 4.57086H55.851C55.851 4.39324 55.7977 4.22154 55.6911 4.05575C55.5885 3.88602 55.4365 3.7459 55.2352 3.63538C55.0379 3.52486 54.7951 3.46959 54.507 3.46959C54.203 3.46959 53.9563 3.51696 53.7669 3.61169C53.5813 3.70248 53.4452 3.81892 53.3583 3.96102C53.2754 4.10312 53.234 4.25311 53.234 4.411C53.234 4.52942 53.2537 4.63599 53.2932 4.73073C53.3366 4.82151 53.4116 4.90638 53.5182 4.98532C53.6248 5.06032 53.7748 5.13137 53.9682 5.19847C54.1616 5.26557 54.4083 5.33268 54.7083 5.39978C55.2333 5.51819 55.6655 5.66029 56.0049 5.82608C56.3444 5.99186 56.597 6.19514 56.7628 6.43592C56.9286 6.6767 57.0115 6.96879 57.0115 7.3122C57.0115 7.59245 56.9523 7.84902 56.8338 8.0819C56.7194 8.31479 56.5516 8.5161 56.3306 8.68583C56.1135 8.85161 55.853 8.98187 55.549 9.0766C55.249 9.16739 54.9116 9.21278 54.5366 9.21278C53.9721 9.21278 53.4945 9.11213 53.1037 8.91082C52.713 8.70951 52.4169 8.44899 52.2156 8.12927C52.0143 7.80955 51.9137 7.47206 51.9137 7.11681H53.0149C53.0307 7.4168 53.1176 7.65561 53.2754 7.83323C53.4333 8.00691 53.6267 8.13124 53.8557 8.20624C54.0846 8.27729 54.3116 8.31282 54.5366 8.31282C54.8366 8.31282 55.0872 8.27334 55.2885 8.1944C55.4938 8.11546 55.6497 8.00691 55.7563 7.86876C55.8628 7.7306 55.9161 7.57271 55.9161 7.39509ZM62.1803 7.39509C62.1803 7.2372 62.1448 7.09116 62.0738 6.95695C62.0067 6.8188 61.8665 6.69446 61.6534 6.58394C61.4442 6.46947 61.1284 6.37079 60.7061 6.2879C60.3508 6.2129 60.0291 6.12409 59.741 6.02146C59.4568 5.91884 59.214 5.7945 59.0127 5.64845C58.8153 5.50241 58.6634 5.3307 58.5568 5.13334C58.4502 4.93598 58.3969 4.70507 58.3969 4.44061C58.3969 4.18799 58.4522 3.94918 58.5627 3.72419C58.6772 3.4992 58.8371 3.29986 59.0423 3.12619C59.2515 2.95251 59.5022 2.81633 59.7943 2.71765C60.0863 2.61897 60.412 2.56963 60.7712 2.56963C61.2843 2.56963 61.7225 2.66042 62.0856 2.84199C62.4487 3.02356 62.727 3.26631 62.9204 3.57025C63.1139 3.87024 63.2106 4.20377 63.2106 4.57086H62.1152C62.1152 4.39324 62.0619 4.22154 61.9553 4.05575C61.8527 3.88602 61.7008 3.7459 61.4994 3.63538C61.3021 3.52486 61.0593 3.46959 60.7712 3.46959C60.4673 3.46959 60.2206 3.51696 60.0311 3.61169C59.8456 3.70248 59.7094 3.81892 59.6225 3.96102C59.5397 4.10312 59.4982 4.25311 59.4982 4.411C59.4982 4.52942 59.5179 4.63599 59.5574 4.73073C59.6008 4.82151 59.6758 4.90638 59.7824 4.98532C59.889 5.06032 60.039 5.13137 60.2324 5.19847C60.4258 5.26557 60.6725 5.33268 60.9725 5.39978C61.4975 5.51819 61.9297 5.66029 62.2692 5.82608C62.6086 5.99186 62.8612 6.19514 63.027 6.43592C63.1928 6.6767 63.2757 6.96879 63.2757 7.3122C63.2757 7.59245 63.2165 7.84902 63.0981 8.0819C62.9836 8.31479 62.8158 8.5161 62.5948 8.68583C62.3777 8.85161 62.1172 8.98187 61.8132 9.0766C61.5133 9.16739 61.1758 9.21278 60.8008 9.21278C60.2363 9.21278 59.7587 9.11213 59.368 8.91082C58.9772 8.70951 58.6811 8.44899 58.4798 8.12927C58.2785 7.80955 58.1779 7.47206 58.1779 7.11681H59.2791C59.2949 7.4168 59.3818 7.65561 59.5397 7.83323C59.6975 8.00691 59.891 8.13124 60.1199 8.20624C60.3488 8.27729 60.5758 8.31282 60.8008 8.31282C61.1008 8.31282 61.3514 8.27334 61.5527 8.1944C61.758 8.11546 61.9139 8.00691 62.0205 7.86876C62.1271 7.7306 62.1803 7.57271 62.1803 7.39509ZM66.3367 7.95757L67.9827 2.68805H68.7051L68.563 3.73603L66.8874 9.09436H66.1828L66.3367 7.95757ZM65.2296 2.68805L66.6328 8.01678L66.7334 9.09436H65.9933L64.1342 2.68805H65.2296ZM70.28 7.97533L71.6181 2.68805H72.7075L70.8484 9.09436H70.1142L70.28 7.97533ZM68.8649 2.68805L70.4754 7.86876L70.6589 9.09436H69.9603L68.2373 3.72419L68.0952 2.68805H68.8649ZM73.5424 5.96225V5.82608C73.5424 5.36425 73.6095 4.93598 73.7437 4.54126C73.8779 4.14259 74.0713 3.79721 74.3239 3.50512C74.5765 3.20908 74.8824 2.98014 75.2416 2.81831C75.6008 2.65252 76.0035 2.56963 76.4495 2.56963C76.8995 2.56963 77.3041 2.65252 77.6633 2.81831C78.0264 2.98014 78.3343 3.20908 78.5869 3.50512C78.8435 3.79721 79.0389 4.14259 79.1731 4.54126C79.3073 4.93598 79.3744 5.36425 79.3744 5.82608V5.96225C79.3744 6.42408 79.3073 6.85235 79.1731 7.24707C79.0389 7.64179 78.8435 7.98717 78.5869 8.28321C78.3343 8.57531 78.0284 8.80424 77.6692 8.97003C77.3139 9.13186 76.9113 9.21278 76.4613 9.21278C76.0113 9.21278 75.6068 9.13186 75.2476 8.97003C74.8884 8.80424 74.5805 8.57531 74.3239 8.28321C74.0713 7.98717 73.8779 7.64179 73.7437 7.24707C73.6095 6.85235 73.5424 6.42408 73.5424 5.96225ZM74.6377 5.82608V5.96225C74.6377 6.28198 74.6752 6.58394 74.7502 6.86814C74.8252 7.14839 74.9377 7.39706 75.0877 7.61416C75.2416 7.83126 75.4331 8.00296 75.662 8.12927C75.891 8.25163 76.1574 8.31282 76.4613 8.31282C76.7613 8.31282 77.0238 8.25163 77.2488 8.12927C77.4777 8.00296 77.6672 7.83126 77.8172 7.61416C77.9672 7.39706 78.0797 7.14839 78.1547 6.86814C78.2336 6.58394 78.2731 6.28198 78.2731 5.96225V5.82608C78.2731 5.5103 78.2336 5.21229 78.1547 4.93203C78.0797 4.64784 77.9652 4.39719 77.8113 4.18009C77.6613 3.95905 77.4718 3.78537 77.2429 3.65906C77.0179 3.53275 76.7534 3.46959 76.4495 3.46959C76.1495 3.46959 75.885 3.53275 75.6561 3.65906C75.4311 3.78537 75.2416 3.95905 75.0877 4.18009C74.9377 4.39719 74.8252 4.64784 74.7502 4.93203C74.6752 5.21229 74.6377 5.5103 74.6377 5.82608ZM81.8433 3.69458V9.09436H80.748V2.68805H81.8137L81.8433 3.69458ZM83.8446 2.65252L83.8387 3.6709C83.7479 3.65117 83.661 3.63932 83.5781 3.63538C83.4992 3.62748 83.4084 3.62354 83.3058 3.62354C83.0532 3.62354 82.8301 3.66301 82.6367 3.74195C82.4433 3.8209 82.2795 3.93142 82.1453 4.07352C82.0111 4.21562 81.9045 4.38535 81.8256 4.58271C81.7506 4.77612 81.7012 4.98927 81.6776 5.22215L81.3697 5.39978C81.3697 5.01295 81.4072 4.64981 81.4822 4.31035C81.5611 3.97089 81.6815 3.6709 81.8433 3.41039C82.0052 3.14592 82.2104 2.94067 82.4591 2.79462C82.7117 2.64463 83.0117 2.56963 83.3591 2.56963C83.438 2.56963 83.5288 2.5795 83.6314 2.59924C83.7341 2.61502 83.8051 2.63279 83.8446 2.65252ZM88.7766 7.85099V0H89.8779V9.09436H88.8713L88.7766 7.85099ZM84.4663 5.96225V5.83792C84.4663 5.34846 84.5255 4.9044 84.6439 4.50574C84.7663 4.10312 84.938 3.75774 85.159 3.46959C85.384 3.18145 85.6504 2.9604 85.9583 2.80646C86.2701 2.64858 86.6175 2.56963 87.0004 2.56963C87.403 2.56963 87.7543 2.64068 88.0543 2.78278C88.3582 2.92093 88.6148 3.12421 88.824 3.39262C89.0371 3.65709 89.2049 3.97681 89.3272 4.35179C89.4496 4.72678 89.5345 5.1511 89.5818 5.62477V6.16948C89.5384 6.6392 89.4536 7.06155 89.3272 7.43654C89.2049 7.81152 89.0371 8.13124 88.824 8.39571C88.6148 8.66017 88.3582 8.86345 88.0543 9.00555C87.7503 9.1437 87.3951 9.21278 86.9885 9.21278C86.6135 9.21278 86.2701 9.13186 85.9583 8.97003C85.6504 8.80819 85.384 8.58123 85.159 8.28913C84.938 7.99704 84.7663 7.65363 84.6439 7.25891C84.5255 6.86024 84.4663 6.42803 84.4663 5.96225ZM85.5675 5.83792V5.96225C85.5675 6.28198 85.5991 6.58197 85.6623 6.86222C85.7294 7.14247 85.832 7.38917 85.9701 7.60232C86.1083 7.81547 86.284 7.98322 86.4971 8.10559C86.7103 8.224 86.9648 8.28321 87.2609 8.28321C87.624 8.28321 87.922 8.20624 88.1549 8.0523C88.3918 7.89836 88.5812 7.69508 88.7233 7.44246C88.8654 7.18984 88.9759 6.91551 89.0549 6.61946V5.19255C89.0075 4.97545 88.9384 4.76625 88.8477 4.56494C88.7608 4.35969 88.6464 4.17812 88.5043 4.02023C88.3661 3.85839 88.1944 3.73011 87.9891 3.63538C87.7878 3.54064 87.549 3.49328 87.2727 3.49328C86.9727 3.49328 86.7142 3.55643 86.4971 3.68274C86.284 3.80511 86.1083 3.97484 85.9701 4.19193C85.832 4.40508 85.7294 4.65376 85.6623 4.93795C85.5991 5.21821 85.5675 5.51819 85.5675 5.83792ZM93.9632 6.66683H92.862C92.8659 6.2879 92.8995 5.97804 92.9626 5.73726C93.0297 5.49254 93.1383 5.26952 93.2883 5.06821C93.4383 4.86691 93.6376 4.63797 93.8863 4.3814C94.0678 4.19588 94.2336 4.0222 94.3836 3.86037C94.5376 3.69458 94.6619 3.51696 94.7566 3.32749C94.8514 3.13408 94.8987 2.90317 94.8987 2.63476C94.8987 2.3624 94.8494 2.12754 94.7507 1.93018C94.656 1.73282 94.5139 1.58086 94.3244 1.47428C94.1389 1.36771 93.908 1.31442 93.6317 1.31442C93.4027 1.31442 93.1856 1.35587 92.9804 1.43876C92.7751 1.52165 92.6093 1.64993 92.483 1.82361C92.3567 1.99334 92.2916 2.21636 92.2877 2.49266H91.1923C91.2002 2.04663 91.3107 1.66375 91.5239 1.34402C91.741 1.0243 92.0331 0.779573 92.4001 0.609843C92.7672 0.440113 93.1777 0.355249 93.6317 0.355249C94.133 0.355249 94.5593 0.446034 94.9106 0.627606C95.2658 0.809177 95.5362 1.06969 95.7217 1.40915C95.9072 1.74467 96 2.14333 96 2.60516C96 2.9604 95.927 3.28802 95.7809 3.58801C95.6388 3.88405 95.4553 4.16233 95.2303 4.42284C95.0053 4.68336 94.7665 4.93203 94.5139 5.16887C94.2968 5.37017 94.1507 5.59714 94.0757 5.84976C94.0007 6.10238 93.9632 6.37474 93.9632 6.66683ZM92.8146 8.54373C92.8146 8.3661 92.8699 8.21611 92.9804 8.09375C93.0909 7.97138 93.2508 7.9102 93.46 7.9102C93.6731 7.9102 93.835 7.97138 93.9455 8.09375C94.056 8.21611 94.1113 8.3661 94.1113 8.54373C94.1113 8.71346 94.056 8.8595 93.9455 8.98187C93.835 9.10423 93.6731 9.16541 93.46 9.16541C93.2508 9.16541 93.0909 9.10423 92.9804 8.98187C92.8699 8.8595 92.8146 8.71346 92.8146 8.54373Z" fill="#979797"/>
</g>
</svg>
